<svg xmlns="http://www.w3.org/2000/svg" viewBox="0 0 1920 1080"><g transform="
          rotate(0 960 540) 
          translate(-0 -0)
          scale(1)
        "><rect width="1920" height="1080" fill="rgb(184, 171, 255)"></rect><g transform="translate(0, 0)"><path fill="rgb(139, 123, 215)" fill-opacity="1" d="M0,352.943L24.615,350.075C49.231,347.207,98.462,341.471,147.692,340.581C196.923,339.692,246.154,343.65,295.385,344.095C344.615,344.54,393.846,341.472,443.077,303.183C492.308,264.894,541.538,191.383,590.769,185.175C640,178.967,689.231,240.06,738.462,221.336C787.692,202.612,836.923,104.069,886.154,98.48C935.385,92.892,984.615,180.258,1033.846,202.019C1083.077,223.78,1132.308,179.937,1181.538,139.356C1230.769,98.774,1280,61.455,1329.231,80.719C1378.462,99.983,1427.692,175.829,1476.923,189.505C1526.154,203.181,1575.385,154.687,1624.615,130.414C1673.846,106.141,1723.077,106.09,1772.308,141.274C1821.538,176.458,1870.769,246.877,1895.385,282.087L1920,317.296L1920,1080L1895.385,1080C1870.769,1080,1821.538,1080,1772.308,1080C1723.077,1080,1673.846,1080,1624.615,1080C1575.385,1080,1526.154,1080,1476.923,1080C1427.692,1080,1378.462,1080,1329.231,1080C1280,1080,1230.769,1080,1181.538,1080C1132.308,1080,1083.077,1080,1033.846,1080C984.615,1080,935.385,1080,886.154,1080C836.923,1080,787.692,1080,738.462,1080C689.231,1080,640,1080,590.769,1080C541.538,1080,492.308,1080,443.077,1080C393.846,1080,344.615,1080,295.385,1080C246.154,1080,196.923,1080,147.692,1080C98.462,1080,49.231,1080,24.615,1080L0,1080Z"></path></g><g transform="translate(0, 360)"><path fill="rgb(95, 76, 175)" fill-opacity="1" d="M0,332.96L24.615,287.285C49.231,241.611,98.462,150.263,147.692,112.623C196.923,74.983,246.154,91.052,295.385,126.273C344.615,161.493,393.846,215.866,443.077,254.33C492.308,292.794,541.538,315.35,590.769,300.514C640,285.679,689.231,233.452,738.462,180.313C787.692,127.174,836.923,73.123,886.154,43.365C935.385,13.606,984.615,8.141,1033.846,41.079C1083.077,74.017,1132.308,145.358,1181.538,167.782C1230.769,190.206,1280,163.713,1329.231,136.177C1378.462,108.642,1427.692,80.062,1476.923,72.255C1526.154,64.448,1575.385,77.412,1624.615,86.608C1673.846,95.804,1723.077,101.232,1772.308,133.056C1821.538,164.88,1870.769,223.101,1895.385,252.212L1920,281.322L1920,720L1895.385,720C1870.769,720,1821.538,720,1772.308,720C1723.077,720,1673.846,720,1624.615,720C1575.385,720,1526.154,720,1476.923,720C1427.692,720,1378.462,720,1329.231,720C1280,720,1230.769,720,1181.538,720C1132.308,720,1083.077,720,1033.846,720C984.615,720,935.385,720,886.154,720C836.923,720,787.692,720,738.462,720C689.231,720,640,720,590.769,720C541.538,720,492.308,720,443.077,720C393.846,720,344.615,720,295.385,720C246.154,720,196.923,720,147.692,720C98.462,720,49.231,720,24.615,720L0,720Z"></path></g><g transform="translate(0, 720)"><path fill="rgb(50, 28, 135)" fill-opacity="1" d="M0,344.553L24.615,346.657C49.231,348.761,98.462,352.969,147.692,328.624C196.923,304.279,246.154,251.381,295.385,209.295C344.615,167.208,393.846,135.933,443.077,108.637C492.308,81.34,541.538,58.022,590.769,92.473C640,126.925,689.231,219.145,738.462,272.167C787.692,325.189,836.923,339.013,886.154,346.415C935.385,353.817,984.615,354.798,1033.846,334.281C1083.077,313.765,1132.308,271.752,1181.538,245.517C1230.769,219.282,1280,208.825,1329.231,187.458C1378.462,166.092,1427.692,133.817,1476.923,159.31C1526.154,184.803,1575.385,268.065,1624.615,302.787C1673.846,337.509,1723.077,323.691,1772.308,319.763C1821.538,315.835,1870.769,321.796,1895.385,324.777L1920,327.758L1920,360L1895.385,360C1870.769,360,1821.538,360,1772.308,360C1723.077,360,1673.846,360,1624.615,360C1575.385,360,1526.154,360,1476.923,360C1427.692,360,1378.462,360,1329.231,360C1280,360,1230.769,360,1181.538,360C1132.308,360,1083.077,360,1033.846,360C984.615,360,935.385,360,886.154,360C836.923,360,787.692,360,738.462,360C689.231,360,640,360,590.769,360C541.538,360,492.308,360,443.077,360C393.846,360,344.615,360,295.385,360C246.154,360,196.923,360,147.692,360C98.462,360,49.231,360,24.615,360L0,360Z"></path></g></g></svg>